HIERARCHY
ROOT hip
{
  OFFSET 5.70873 43.8894 -1.52928
  CHANNELS 6 Xposition Yposition Zposition Zrotation Xrotation Yrotation
  JOINT abdomen
  {
    OFFSET 0 5.99393 0.287273
    CHANNELS 6 Xposition Yposition Zposition Zrotation Xrotation Yrotation
    JOINT chest
    {
      OFFSET 0 6.65865 -0.856112
      CHANNELS 6 Xposition Yposition Zposition Zrotation Xrotation Yrotation
      JOINT neck
      {
        OFFSET 0 8.65624 -1.42685
        CHANNELS 6 Xposition Yposition Zposition Zrotation Xrotation Yrotation
        JOINT head
        {
          OFFSET 0 3.80999 -0.190247
          CHANNELS 6 Xposition Yposition Zposition Zrotation Xrotation Yrotation
          End Site
          {
            OFFSET 0 0 0
          }
        }
      }
      JOINT rCollar
      {
        OFFSET -1.4963 7.5744 -1.52136
        CHANNELS 6 Xposition Yposition Zposition Zrotation Xrotation Yrotation
        JOINT rShldr
        {
          OFFSET -5.47506 -0.905672 0.485692
          CHANNELS 6 Xposition Yposition Zposition Zrotation Xrotation Yrotation
          JOINT rForeArm
          {
            OFFSET -11.3069 -0.201091 0.618544
            CHANNELS 6 Xposition Yposition Zposition Zrotation Xrotation Yrotation
            JOINT rHand
            {
              OFFSET -9.61414 -0.254739 3.48553
              CHANNELS 6 Xposition Yposition Zposition Zrotation Xrotation Yrotation
              JOINT rThumb1
              {
                OFFSET 0.176263 -0.07068 1.26622
                CHANNELS 6 Xposition Yposition Zposition Zrotation Xrotation Yrotation
                JOINT rThumb2
                {
                  OFFSET -1.04683 -0.546484 1.82182
                  CHANNELS 6 Xposition Yposition Zposition Zrotation Xrotation Yrotation
                  JOINT rThumb3
                  {
                    OFFSET -0.993472 -0.621916 0.655506
                    CHANNELS 6 Xposition Yposition Zposition Zrotation Xrotation Yrotation
                    End Site
                    {
                      OFFSET -0.996134 -0.66263 0.644615
                    }
                  }
                }
              }
              JOINT rIndex1
              {
                OFFSET -2.64253 0.566363 2.4162
                CHANNELS 6 Xposition Yposition Zposition Zrotation Xrotation Yrotation
                JOINT rIndex2
                {
                  OFFSET -1.39394 -0.635138 0.899356
                  CHANNELS 6 Xposition Yposition Zposition Zrotation Xrotation Yrotation
                  JOINT rIndex3
                  {
                    OFFSET -0.622395 -0.856016 0.402182
                    CHANNELS 6 Xposition Yposition Zposition Zrotation Xrotation Yrotation
                    End Site
                    {
                      OFFSET -0.472476 -0.801802 0.34216
                    }
                  }
                }
              }
              JOINT rMid1
              {
                OFFSET -3.20814 0.514427 1.52547
                CHANNELS 6 Xposition Yposition Zposition Zrotation Xrotation Yrotation
                JOINT rMid2
                {
                  OFFSET -1.56545 -0.497974 0.68919
                  CHANNELS 6 Xposition Yposition Zposition Zrotation Xrotation Yrotation
                  JOINT rMid3
                  {
                    OFFSET -0.679943 -1.17582 0.444246
                    CHANNELS 6 Xposition Yposition Zposition Zrotation Xrotation Yrotation
                    End Site
                    {
                      OFFSET -0.343874 -0.941341 0.267611
                    }
                  }
                }
              }
              JOINT rRing1
              {
                OFFSET -3.47877 0.200518 0.597719
                CHANNELS 6 Xposition Yposition Zposition Zrotation Xrotation Yrotation
                JOINT rRing2
                {
                  OFFSET -1.28208 -0.53155 0.44672
                  CHANNELS 6 Xposition Yposition Zposition Zrotation Xrotation Yrotation
                  JOINT rRing3
                  {
                    OFFSET -0.710288 -0.970167 0.4032
                    CHANNELS 6 Xposition Yposition Zposition Zrotation Xrotation Yrotation
                    End Site
                    {
                      OFFSET -0.403228 -0.950952 0.378354
                    }
                  }
                }
              }
              JOINT rPinky1
              {
                OFFSET -3.42483 -0.278904 -0.240415
                CHANNELS 6 Xposition Yposition Zposition Zrotation Xrotation Yrotation
                JOINT rPinky2
                {
                  OFFSET -1.05787 -0.635999 0.156459
                  CHANNELS 6 Xposition Yposition Zposition Zrotation Xrotation Yrotation
                  JOINT rPinky3
                  {
                    OFFSET -0.42815 -0.754232 0.287187
                    CHANNELS 6 Xposition Yposition Zposition Zrotation Xrotation Yrotation
                    End Site
                    {
                      OFFSET -0.235717 -0.725605 0.279416
                    }
                  }
                }
              }
            }
          }
        }
      }
      JOINT lCollar
      {
        OFFSET 1.4963 7.5744 -1.52136
        CHANNELS 6 Xposition Yposition Zposition Zrotation Xrotation Yrotation
        JOINT lShldr
        {
          OFFSET 5.47506 -0.905672 0.485692
          CHANNELS 6 Xposition Yposition Zposition Zrotation Xrotation Yrotation
          JOINT lForeArm
          {
            OFFSET 11.3069 -0.201091 0.618544
            CHANNELS 6 Xposition Yposition Zposition Zrotation Xrotation Yrotation
            JOINT lHand
            {
              OFFSET 9.61414 -0.254739 3.48553
              CHANNELS 6 Xposition Yposition Zposition Zrotation Xrotation Yrotation
              JOINT lThumb1
              {
                OFFSET -0.176263 -0.07068 1.26622
                CHANNELS 6 Xposition Yposition Zposition Zrotation Xrotation Yrotation
                JOINT lThumb2
                {
                  OFFSET 1.04683 -0.546484 1.82182
                  CHANNELS 6 Xposition Yposition Zposition Zrotation Xrotation Yrotation
                  JOINT lThumb3
                  {
                    OFFSET 0.993472 -0.621916 0.655506
                    CHANNELS 6 Xposition Yposition Zposition Zrotation Xrotation Yrotation
                    End Site
                    {
                      OFFSET 0.996134 -0.66263 0.644615
                    }
                  }
                }
              }
              JOINT lIndex1
              {
                OFFSET 2.64253 0.566363 2.4162
                CHANNELS 6 Xposition Yposition Zposition Zrotation Xrotation Yrotation
                JOINT lIndex2
                {
                  OFFSET 1.39394 -0.635138 0.899356
                  CHANNELS 6 Xposition Yposition Zposition Zrotation Xrotation Yrotation
                  JOINT lIndex3
                  {
                    OFFSET 0.622395 -0.856016 0.402182
                    CHANNELS 6 Xposition Yposition Zposition Zrotation Xrotation Yrotation
                    End Site
                    {
                      OFFSET 0.472476 -0.801802 0.34216
                    }
                  }
                }
              }
              JOINT lMid1
              {
                OFFSET 3.20814 0.514427 1.52547
                CHANNELS 6 Xposition Yposition Zposition Zrotation Xrotation Yrotation
                JOINT lMid2
                {
                  OFFSET 1.56545 -0.497974 0.68919
                  CHANNELS 6 Xposition Yposition Zposition Zrotation Xrotation Yrotation
                  JOINT lMid3
                  {
                    OFFSET 0.679943 -1.17582 0.444246
                    CHANNELS 6 Xposition Yposition Zposition Zrotation Xrotation Yrotation
                    End Site
                    {
                      OFFSET 0.343874 -0.941341 0.267611
                    }
                  }
                }
              }
              JOINT lRing1
              {
                OFFSET 3.47877 0.200518 0.597719
                CHANNELS 6 Xposition Yposition Zposition Zrotation Xrotation Yrotation
                JOINT lRing2
                {
                  OFFSET 1.28208 -0.53155 0.44672
                  CHANNELS 6 Xposition Yposition Zposition Zrotation Xrotation Yrotation
                  JOINT lRing3
                  {
                    OFFSET 0.710288 -0.970167 0.4032
                    CHANNELS 6 Xposition Yposition Zposition Zrotation Xrotation Yrotation
                    End Site
                    {
                      OFFSET 0.403228 -0.950952 0.378354
                    }
                  }
                }
              }
              JOINT lPinky1
              {
                OFFSET 3.42483 -0.278904 -0.240415
                CHANNELS 6 Xposition Yposition Zposition Zrotation Xrotation Yrotation
                JOINT lPinky2
                {
                  OFFSET 1.05787 -0.635999 0.156459
                  CHANNELS 6 Xposition Yposition Zposition Zrotation Xrotation Yrotation
                  JOINT lPinky3
                  {
                    OFFSET 0.42815 -0.754232 0.287187
                    CHANNELS 6 Xposition Yposition Zposition Zrotation Xrotation Yrotation
                    End Site
                    {
                      OFFSET 0.235717 -0.725605 0.279416
                    }
                  }
                }
              }
            }
          }
        }
      }
    }
  }
  JOINT rThigh
  {
    OFFSET -4.17848 -1.02486 0.046356
    CHANNELS 6 Xposition Yposition Zposition Zrotation Xrotation Yrotation
    JOINT rShin
    {
      OFFSET 1.27155 -17.465 -0.237699
      CHANNELS 6 Xposition Yposition Zposition Zrotation Xrotation Yrotation
      JOINT rFoot
      {
        OFFSET 0.529163 -17.3815 -1.19582
        CHANNELS 6 Xposition Yposition Zposition Zrotation Xrotation Yrotation
        JOINT rToe
        {
          OFFSET -0.711591 -4.4863 4.0596
          CHANNELS 6 Xposition Yposition Zposition Zrotation Xrotation Yrotation
          End Site
          {
            OFFSET -0.869915 -1.10655 1.99006
          }
        }
      }
    }
  }
  JOINT lThigh
  {
    OFFSET 4.17848 -1.02486 0.046356
    CHANNELS 6 Xposition Yposition Zposition Zrotation Xrotation Yrotation
    JOINT lShin
    {
      OFFSET -1.27155 -17.465 -0.237699
      CHANNELS 6 Xposition Yposition Zposition Zrotation Xrotation Yrotation
      JOINT lFoot
      {
        OFFSET -0.529163 -17.3815 -1.19582
        CHANNELS 6 Xposition Yposition Zposition Zrotation Xrotation Yrotation
        JOINT lToe
        {
          OFFSET 0.711591 -4.4863 4.0596
          CHANNELS 6 Xposition Yposition Zposition Zrotation Xrotation Yrotation
          End Site
          {
            OFFSET 0.869915 -1.10655 1.99006
          }
        }
      }
    }
  }
}
MOTION
Frames:	4
Frame Time:	0.0333333
4.87614 14.4192 -18.3523 12.8006 10.1769 -55.1353 0 5.99393 0.287273 -0.214355 -4.64253 2.5419 0 6.65865 -0.856112 -0.222192 -9.28998 5.09151 0 8.65624 -1.42685 0.173845 0.714211 -4.39519 -1.77636e-015 3.80999 -0.190247 6.57726 -0.317227 -2.25092 -1.4963 7.5744 -1.52136 -6.93189 -1.06535 30.815 -5.47506 -0.905672 0.485692 37.6158 -28.4048 58.5458 -11.3069 -0.201091 0.618544 18.018 -1.83163 37.3414 -9.61414 -0.254739 3.48553 -40.479 -45.9545 -35.4787 0.176263 -0.07068 1.26622 -27.0716 34.1213 37.4741 -1.04683 -0.546484 1.82182 3.31223 -2.96559 9.24488 -0.993472 -0.621916 0.655506 -4.32711 5.93882 -14.9479 -2.64253 0.566363 2.4162 13.4016 5.92001 -12.0724 -1.39394 -0.635138 0.899356 44.7396 8.15938 -10.1718 -0.622395 -0.856016 0.402182 45.8625 8.24908 -10.4911 -3.20814 0.514427 1.52547 7.1027 0.886063 -2.24136 -1.56545 -0.497974 0.68919 52.741 10.5332 -13.0892 -0.679943 -1.17582 0.444246 15.4526 4.36311 -2.78812 -3.47877 0.200518 0.597719 14.3236 -1.13306 -5.51472 -1.28208 -0.53155 0.44672 21.365 6.41244 -5.10254 -0.710288 -0.970167 0.4032 22.9813 6.80616 -5.57297 -3.42483 -0.278904 -0.240415 -6.90717 -7.98183 -6.3668 -1.05787 -0.635999 0.156459 25.752 8.21718 -6.21987 -0.42815 -0.754232 0.287187 15.2761 5.26327 -3.27304 1.4963 7.5744 -1.52136 2.96038 -2.0202 -17.7981 5.47506 -0.905672 0.485692 -54.6836 -0.500031 -50.8201 11.3069 -0.201091 0.618544 -8.62672 -17.6998 -47.8154 9.61414 -0.254739 3.48553 2.76277 -22.8089 10.8368 -0.176263 -0.07068 1.26622 24.2782 38.4818 -35.502 1.04683 -0.546484 1.82182 -6.53183 -1.24812 -11.4632 0.993472 -0.621916 0.655506 6.45118 2.66719 11.8094 2.64253 0.566363 2.4162 -5.18972 4.4831 12.5249 1.39394 -0.635138 0.899356 -36.9452 6.74318 17.0314 0.622395 -0.856016 0.402182 -38.0065 6.76623 17.5558 3.20814 0.514427 1.52547 -1.48521 -0.683643 1.67107 1.56545 -0.497974 0.68919 -44.4868 8.35707 21.4002 0.679943 -1.17582 0.444246 -9.36102 3.19915 3.99159 3.47877 0.200518 0.597719 -8.07659 -2.63755 5.99024 1.28208 -0.53155 0.44672 -14.781 5.1502 7.29482 0.710288 -0.970167 0.4032 -16.2802 5.55302 8.08464 3.42483 -0.278904 -0.240415 11.7678 -11.303 2.60141 1.05787 -0.635999 0.156459 -18.8959 6.82265 9.38286 0.42815 -0.754232 0.287187 -9.18831 3.76106 4.34942 -4.17848 -1.02486 0.046356 -62.853 -30.1124 -24.8205 1.27155 -17.465 -0.237699 154.5 53.7368 -143.241 0.529163 -17.3815 -1.19582 -6.46519 52.1101 44.6194 -0.711591 -4.4863 4.0596 -13.5752 28.3871 -6.17307 4.17848 -1.02486 0.046356 64.3497 -38.2794 46.3999 -1.27155 -17.465 -0.237699 168.887 55.3313 -167.771 -0.529163 -17.3815 -1.19582 14.7848 42.2493 -46.3628 0.711591 -4.4863 4.0596 12.815 54.9416 13.1072 
4.85415 14.4559 -18.3286 12.625 10.3573 -54.8612 -1.77636e-015 5.99393 0.287273 -0.280349 -4.38478 2.24286 0 6.65865 -0.856112 -0.389535 -8.7773 4.48396 1.77636e-015 8.65624 -1.42685 0.0640583 0.91085 -4.40925 0 3.80999 -0.190247 6.75348 -0.022246 -1.91961 -1.4963 7.5744 -1.52136 -7.65249 -1.33322 29.3868 -5.47506 -0.905672 0.485692 38.2645 -27.9469 60.1875 -11.3069 -0.201091 0.618544 17.6202 -2.03709 37.4382 -9.61414 -0.254739 3.48553 -40.3697 -47.098 -35.8755 0.176263 -0.07068 1.26622 -27.0613 34.1532 37.4488 -1.04683 -0.546484 1.82182 3.30479 -2.95998 9.22533 -0.993472 -0.621916 0.655506 -4.32714 5.93884 -14.9479 -2.64253 0.566363 2.4162 13.3335 5.92233 -12.0711 -1.39394 -0.635138 0.899356 44.7226 8.15798 -10.167 -0.622395 -0.856016 0.402182 45.8625 8.24912 -10.4911 -3.20814 0.514427 1.52547 7.08745 0.894816 -2.25485 -1.56545 -0.497974 0.68919 52.7411 10.5332 -13.0892 -0.679943 -1.17582 0.444246 15.5035 4.37603 -2.79913 -3.47877 0.200518 0.597719 14.3343 -1.13049 -5.51638 -1.28208 -0.53155 0.44672 21.394 6.41959 -5.1109 -0.710288 -0.970167 0.4032 23.0098 6.81301 -5.58138 -3.42483 -0.278904 -0.240415 -6.85078 -7.96854 -6.35426 -1.05787 -0.635999 0.156459 25.7707 8.2219 -6.22553 -0.42815 -0.754232 0.287187 15.3038 5.27183 -3.28015 1.4963 7.5744 -1.52136 3.83672 -2.01124 -17.778 5.47506 -0.905672 0.485692 -55.3879 -0.520022 -50.5149 11.3069 -0.201091 0.618544 -10.1854 -18.618 -49.9534 9.61414 -0.254739 3.48553 3.854 -20.5285 11.4101 -0.176263 -0.07068 1.26622 24.2782 38.4818 -35.502 1.04683 -0.546484 1.82182 -6.53183 -1.24813 -11.4632 0.993472 -0.621916 0.655506 6.45118 2.66719 11.8094 2.64253 0.566363 2.4162 -5.18973 4.4831 12.5249 1.39394 -0.635138 0.899356 -36.9452 6.74319 17.0315 0.622395 -0.856016 0.402182 -38.0065 6.76623 17.5558 3.20814 0.514427 1.52547 -1.48521 -0.683652 1.67107 1.56545 -0.497974 0.68919 -44.4869 8.35707 21.4002 0.679943 -1.17582 0.444246 -9.36103 3.19916 3.99158 3.47877 0.200518 0.597719 -8.07659 -2.63756 5.99024 1.28208 -0.53155 0.44672 -14.781 5.15018 7.29483 0.710288 -0.970167 0.4032 -16.2802 5.55302 8.08464 3.42483 -0.278904 -0.240415 11.7678 -11.303 2.60142 1.05787 -0.635999 0.156459 -18.8959 6.82266 9.38286 0.42815 -0.754232 0.287187 -9.18831 3.76107 4.34943 -4.17848 -1.02486 0.046356 -62.2276 -30.063 -24.6016 1.27155 -17.465 -0.237699 154.398 53.9851 -143.376 0.529163 -17.3815 -1.19582 -6.29654 52.1413 44.199 -0.711591 -4.4863 4.0596 -13.567 27.9834 -6.2654 4.17848 -1.02486 0.046356 64.7182 -38.2906 46.581 -1.27155 -17.465 -0.237699 168.86 55.3757 -167.695 -0.529163 -17.3815 -1.19582 14.9347 42.2653 -46.4022 0.711591 -4.4863 4.0596 12.9858 54.9227 13.3561 
4.80869 14.5052 -18.2971 12.296 10.5169 -54.6472 0 5.99393 0.287273 -0.355322 -4.08542 1.92102 1.77636e-015 6.65865 -0.856112 -0.574942 -8.18042 3.83131 0 8.65624 -1.42685 -0.0108018 0.946786 -4.46363 0 3.80999 -0.190247 6.99489 0.396136 -1.5832 -1.4963 7.5744 -1.52136 -9.18493 -1.60116 27.497 -5.47506 -0.905672 0.485692 39.6106 -27.1522 62.2796 -11.3069 -0.201091 0.618544 16.4582 -2.97487 37.8662 -9.61414 -0.254739 3.48553 -39.4032 -48.5967 -36.3288 0.176263 -0.07068 1.26622 -27.0309 34.247 37.3746 -1.04683 -0.546484 1.82182 3.283 -2.9434 9.16794 -0.993472 -0.621916 0.655506 -4.32716 5.93888 -14.9479 -2.64253 0.566363 2.4162 13.1339 5.92895 -12.0673 -1.39394 -0.635138 0.899356 44.7055 8.15659 -10.1622 -0.622395 -0.856016 0.402182 45.8625 8.24916 -10.4911 -3.20814 0.514427 1.52547 7.04279 0.920579 -2.29446 -1.56545 -0.497974 0.68919 52.7411 10.5332 -13.0892 -0.679943 -1.17582 0.444246 15.6531 4.41395 -2.83148 -3.47877 0.200518 0.597719 14.3449 -1.12789 -5.51804 -1.28208 -0.53155 0.44672 21.4794 6.44073 -5.13555 -0.710288 -0.970167 0.4032 23.0935 6.83296 -5.60607 -3.42483 -0.278904 -0.240415 -6.6853 -7.92957 -6.31753 -1.05787 -0.635999 0.156459 25.7893 8.22661 -6.2312 -0.42815 -0.754232 0.287187 15.4047 5.30775 -3.30782 1.4963 7.5744 -1.52136 5.23069 -2.03335 -17.913 5.47506 -0.905672 0.485692 -56.1542 -1.10146 -49.5812 11.3069 -0.201091 0.618544 -12.3274 -18.4276 -52.6916 9.61414 -0.254739 3.48553 5.677 -18.858 11.9937 -0.176263 -0.07068 1.26622 24.2782 38.4818 -35.502 1.04683 -0.546484 1.82182 -6.53184 -1.24816 -11.4632 0.993472 -0.621916 0.655506 6.4512 2.66719 11.8095 2.64253 0.566363 2.4162 -5.18975 4.48307 12.5249 1.39394 -0.635138 0.899356 -36.9452 6.74319 17.0315 0.622395 -0.856016 0.402182 -38.0065 6.76623 17.5558 3.20814 0.514427 1.52547 -1.48522 -0.683653 1.67108 1.56545 -0.497974 0.68919 -44.4869 8.35704 21.4002 0.679943 -1.17582 0.444246 -9.36105 3.19918 3.99159 3.47877 0.200518 0.597719 -8.07661 -2.63757 5.99025 1.28208 -0.53155 0.44672 -14.7811 5.15019 7.29484 0.710288 -0.970167 0.4032 -16.2802 5.55303 8.08464 3.42483 -0.278904 -0.240415 11.7678 -11.303 2.60141 1.05787 -0.635999 0.156459 -18.896 6.82266 9.38288 0.42815 -0.754232 0.287187 -9.18833 3.76105 4.34944 -4.17848 -1.02486 0.046356 -61.311 -30.1758 -24.283 1.27155 -17.465 -0.237699 154.303 54.185 -143.441 0.529163 -17.3815 -1.19582 -6.48855 51.974 43.8498 -0.711591 -4.4863 4.0596 -13.5128 28.0127 -6.24065 4.17848 -1.02486 0.046356 65.0516 -38.0758 46.516 -1.27155 -17.465 -0.237699 168.814 55.5016 -167.616 -0.529163 -17.3815 -1.19582 14.8116 42.6212 -46.1111 0.711591 -4.4863 4.0596 12.7613 54.6507 13.1854 
4.76208 14.5995 -18.2257 12.0554 10.6548 -54.3688 0 5.99393 0.287273 -0.468067 -3.82167 1.62271 -1.77636e-015 6.65865 -0.856112 -0.829985 -7.65501 3.22483 -1.77636e-015 8.65624 -1.42685 -0.0891127 1.27174 -4.5423 0 3.80999 -0.190247 7.02861 0.505037 -1.11022 -1.4963 7.5744 -1.52136 -10.1117 -1.72057 25.8296 -5.47506 -0.905672 0.485692 40.0042 -27.2329 63.9433 -11.3069 -0.201091 0.618544 16.5928 -3.89219 38.2339 -9.61414 -0.254739 3.48553 -38.1692 -49.9482 -36.3378 0.176263 -0.07068 1.26622 -26.9811 34.3991 37.2536 -1.04683 -0.546484 1.82182 3.24762 -2.91644 9.07466 -0.993472 -0.621916 0.655506 -4.32721 5.93897 -14.9478 -2.64253 0.566363 2.4162 12.8097 5.93946 -12.0615 -1.39394 -0.635138 0.899356 44.6641 8.15314 -10.1505 -0.622395 -0.856016 0.402182 45.8625 8.24925 -10.4912 -3.20814 0.514427 1.52547 6.97033 0.962419 -2.35881 -1.56545 -0.497974 0.68919 52.7411 10.5332 -13.0892 -0.679943 -1.17582 0.444246 15.8961 4.47533 -2.88435 -3.47877 0.200518 0.597719 14.3555 -1.12531 -5.51969 -1.28208 -0.53155 0.44672 21.618 6.47491 -5.17562 -0.710288 -0.970167 0.4032 23.2543 6.87117 -5.65359 -3.42483 -0.278904 -0.240415 -6.41637 -7.86639 -6.25818 -1.05787 -0.635999 0.156459 25.8426 8.24008 -6.24744 -0.42815 -0.754232 0.287187 15.5056 5.34359 -3.33555 1.4963 7.5744 -1.52136 5.94658 -2.0754 -18.1185 5.47506 -0.905672 0.485692 -57.4007 -0.279275 -48.8191 11.3069 -0.201091 0.618544 -14.3315 -20.1804 -55.758 9.61414 -0.254739 3.48553 6.61749 -14.8021 12.4027 -0.176263 -0.07068 1.26622 24.2783 38.4819 -35.502 1.04683 -0.546484 1.82182 -6.53188 -1.2482 -11.4632 0.993472 -0.621916 0.655506 6.4512 2.66719 11.8095 2.64253 0.566363 2.4162 -5.18975 4.48306 12.5249 1.39394 -0.635138 0.899356 -36.9452 6.74317 17.0314 0.622395 -0.856016 0.402182 -38.0065 6.76624 17.5558 3.20814 0.514427 1.52547 -1.48522 -0.683665 1.67107 1.56545 -0.497974 0.68919 -44.4869 8.35704 21.4002 0.679943 -1.17582 0.444246 -9.36105 3.19918 3.99158 3.47877 0.200518 0.597719 -8.0766 -2.63756 5.99024 1.28208 -0.53155 0.44672 -14.781 5.15017 7.29484 0.710288 -0.970167 0.4032 -16.2802 5.55304 8.08464 3.42483 -0.278904 -0.240415 11.7678 -11.3031 2.60142 1.05787 -0.635999 0.156459 -18.8959 6.82266 9.38286 0.42815 -0.754232 0.287187 -9.18833 3.76103 4.34946 -4.17848 -1.02486 0.046356 -60.613 -30.2434 -23.9469 1.27155 -17.465 -0.237699 154.099 54.4582 -143.294 0.529163 -17.3815 -1.19582 -5.79691 51.8712 42.9109 -0.711591 -4.4863 4.0596 -13.4351 27.5368 -6.32226 4.17848 -1.02486 0.046356 65.1603 -38.0207 46.5214 -1.27155 -17.465 -0.237699 168.78 55.6794 -167.592 -0.529163 -17.3815 -1.19582 14.6214 42.7675 -45.6833 0.711591 -4.4863 4.0596 12.6645 54.2505 13.2477 
